<?xml version="1.0" encoding="utf-8"?>
<!-- Generator: Adobe Illustrator 24.1.3, SVG Export Plug-In . SVG Version: 6.00 Build 0)  -->
<svg version="1.1" id="Layer_1" xmlns="http://www.w3.org/2000/svg" xmlns:xlink="http://www.w3.org/1999/xlink" x="0px" y="0px"
	 viewBox="0 0 850.39 595.28" style="enable-background:new 0 0 850.39 595.28;" xml:space="preserve">
<style type="text/css">
	.st0{fill:#FFFFFF;}
	.st1{fill:#30193B;}
	.st2{fill:#295A6E;}
	.st3{fill:#357A5F;}
	.st4{fill:#2C6D51;}
	.st5{fill:#FF9A2E;}
	.st6{fill:#FF97A6;}
	.st7{fill:#3B2B5B;}
	.st8{fill:#C95D77;}
	.st9{fill:#FFCB48;}
	.st10{fill:#F9BD38;}
	.st11{fill:#CBB3FC;}
	.st12{fill:#7F65C1;}
	.st13{fill:#EEEAFE;}
	.st14{fill:none;}
	.st15{fill:#FF5E4D;}
	.st16{fill:#FF7B71;}
	.st17{fill:#D5EAF5;}
	.st18{fill:#AACBE8;}
	.st19{fill:#9FC0E2;}
	.st20{fill:#C43B72;}
	.st21{fill:#AF2B67;}
	.st22{opacity:0.69;}
	.st23{fill:#F8F7FD;}
	.st24{fill:#FD9E38;}
	.st25{clip-path:url(#SVGID_2_);}
	.st26{fill:#E4DEFC;}
	.st27{fill:#C9BBF9;}
	.st28{fill:#DBCFFD;}
</style>
<g>
	<g>
		<g>
			<g>
				<g>
					<g>
						<g>
							<rect y="67.92" class="st0" width="850.39" height="360.58"/>
						</g>
					</g>
				</g>
			</g>
		</g>
	</g>
</g>
<g>
	<path class="st1" d="M348.74,322.03h-14v28.09h-28.09v-28.09h-70.18l15.66-112.26h28.09L268,294.04h38.66v-70.18h28.09v70.18h14
		V322.03z"/>
	<path class="st1" d="M477.65,279.95c0,13.31-1.47,24.57-4.4,33.77c-2.94,9.2-6.95,16.64-12.04,22.32
		c-5.09,5.68-11.05,9.77-17.86,12.28c-6.82,2.51-14.11,3.77-21.87,3.77c-7.77,0-15.06-1.29-21.88-3.87
		c-6.82-2.58-12.76-6.72-17.81-12.43c-5.06-5.71-9.05-13.15-11.99-22.32c-2.94-9.17-4.4-20.34-4.4-33.52
		c0-13.31,1.47-24.55,4.4-33.72c2.94-9.17,6.93-16.59,11.99-22.27c5.06-5.68,10.99-9.79,17.81-12.33
		c6.82-2.55,14.11-3.82,21.88-3.82c7.76,0,15.06,1.29,21.87,3.87c6.82,2.58,12.77,6.74,17.86,12.48c5.09,5.74,9.1,13.18,12.04,22.32
		C476.18,255.61,477.65,266.77,477.65,279.95z M450.93,279.95c0-15.59-2.59-27.18-7.78-34.75c-5.19-7.57-12.42-11.35-21.68-11.35
		c-9.2,0-16.35,3.75-21.43,11.26c-5.09,7.5-7.63,19.12-7.63,34.84c0,15.6,2.55,27.18,7.63,34.75c5.09,7.57,12.23,11.35,21.43,11.35
		c4.63,0,8.78-0.93,12.43-2.79c3.65-1.86,6.74-4.68,9.25-8.47c2.51-3.78,4.44-8.56,5.77-14.34
		C450.26,294.67,450.93,287.84,450.93,279.95z"/>
	<path class="st1" d="M603.91,322.03h-14v28.09h-28.09v-28.09h-70.18l15.66-112.26h28.09l-12.23,84.27h38.66v-70.18h28.09v70.18h14
		V322.03z"/>
</g>
<g>
	<g>
		<path class="st2" d="M420.31,150.99c0,0-2.46-0.66-1.3-4.77c1.16-4.11,4.47-3.82,4.47-3.82s2.82-0.58,4.16,0.98
			c1.33,1.56,3.12,7.29-1.62,8.39C421.26,152.87,420.31,150.99,420.31,150.99z"/>
	</g>
	<g>
		<path class="st3" d="M413.12,158.98c-0.75-0.76-1.7-2.15-2.51-1.46c-1.48,1.28-4.06,4.95-6.63,9.59
			c-2.57,4.65-3.41,6.93-3.05,9.89c0.31,2.55,4.59,4.59,4.59,4.59s3.51-11.69,4.9-15.82C411.24,163.4,414.3,160.17,413.12,158.98z"
			/>
	</g>
	<g>
		<path class="st4" d="M432.17,158.5c0.75-0.76-0.35-2.21,0.67-1.91c1.62,0.48,4.69,4.32,7.99,10.62c1.21,2.3,2.1,4.13,2.76,5.57
			c1.33,2.9,0.4,6.33-2.21,8.17l-1.54,1.08c0,0-6.08-15.6-8-18.74C430.53,161.13,430.99,159.69,432.17,158.5z"/>
	</g>
	<g>
		<g>
			<g>
				<path class="st5" d="M413.68,179.08c0,0-5.59,6.75-9.04,14.17c-1.53,3.29-3.65,9.65-1.42,13.54c1.63,2.84,7.44,4.67,7.44,4.67
					l14.37-8.29l1.78-20.38L413.68,179.08z"/>
			</g>
		</g>
	</g>
	<g>
		<g>
			<g>
				<g>
					<path class="st1" d="M414.77,261.68c0.44-0.67,0.86-4.77-1.1-6.62c0.24,0.36,0.58,2.13,0.04,2.23
						c-0.79,0.15-1.67-1.62-1.95-2.49c-0.31,0.53-0.49,1.25-0.47,1.81C411.4,259.24,413.74,263.26,414.77,261.68z"/>
				</g>
			</g>
		</g>
		<g>
			<g>
				<g>
					<path class="st6" d="M412.03,253.21c0.01,0.78,0.02,1.2,0.01,1.21c-0.1,0.1-0.2,0.24-0.29,0.39c-0.1,1.05,0.91,3.5,2.16,3.25
						c0.62-0.12,0.89-1.29,0.11-2.46c-0.57-0.86-0.84-1.24-0.95-1.35c0.1-0.3,0.22-0.62,0.34-0.97
						C414.33,250.79,412,251.27,412.03,253.21z"/>
				</g>
			</g>
		</g>
	</g>
	<g>
		<g>
			<g>
				<path class="st5" d="M429.69,180.36c0,0,6.97,9.11,10.48,15.94c1.65,3.22,1.63,8.31,0.28,12.79c-0.94,3.13-7.2,6.08-7.2,6.08
					l-14.82-11.43l-1.87-21.39L429.69,180.36z"/>
			</g>
		</g>
	</g>
	<g>
		<g>
			<g>
				<g>
					<path class="st1" d="M427.07,261.46c-0.36-0.72-0.29-4.83,1.87-6.45c-0.28,0.33-0.82,2.05-0.3,2.21
						c0.77,0.24,1.85-1.41,2.23-2.24c0.24,0.57,0.34,1.3,0.25,1.85C430.7,259.43,427.92,263.15,427.07,261.46z"/>
				</g>
			</g>
		</g>
		<g>
			<g>
				<g>
					<path class="st6" d="M430.79,253.37c-0.1,0.77-0.16,1.19-0.15,1.2c0.09,0.11,0.17,0.26,0.24,0.42
						c-0.02,1.06-1.31,3.36-2.53,2.97c-0.6-0.19-0.73-1.39,0.18-2.46c0.66-0.79,0.99-1.14,1.1-1.23c-0.07-0.31-0.14-0.64-0.23-1
						C428.79,250.7,431.05,251.45,430.79,253.37z"/>
				</g>
			</g>
		</g>
	</g>
	<g>
		<g>
			<g>
				<path class="st3" d="M410.62,157.52c2.3-1.7,7.81-3.1,20.57-1.39c0.87,0.12,1.1,0.28,1.57,0.53c0.55,0.3,0.92,0.86,0.97,1.48
					c0.28,3.2,0.26,4.02,0.26,4.02c-1.17,2.34-1.49,8.46-1.98,10.83c-0.63,3.05-1.27,9.46-1.27,9.46s-5.68,0.97-9.86,1.01
					c-3.43,0.04-9.17-0.3-9.34-2.01c-0.34-3.4-0.57-7.95-0.95-12.87C410.14,162.96,410.62,157.52,410.62,157.52z"/>
			</g>
		</g>
	</g>
	<g>
		<g>
			<g>
				<polygon class="st7" points="424.82,153.15 424.82,153.15 424.82,153.15 				"/>
			</g>
		</g>
	</g>
	<g>
		<g>
			<g>
				<path class="st4" d="M422.96,155.49c0,0,2.04,0.06,2.94,0.11c1.64,0.1,3.4,0.28,5.29,0.53c0.65,0.09,0.97,0.17,1.29,0.3
					c0.84,0.34,1.45,1.08,1.65,1.97c0.62,2.73,0.16,5.26,0.16,5.26c0.01,2.68,0.02,6.77-0.47,9.13c-0.63,3.05-2.44,9.86-2.44,9.86
					s0.26,0.45-9.43,0.82c0,0,2.37-7.13,2.11-14.32C423.8,161.25,422.96,155.49,422.96,155.49z"/>
			</g>
		</g>
	</g>
	<g>
		<g>
			<g>
				<g>
					<path class="st6" d="M424.06,151.45c0,0,0.16,4.66-0.23,5.13c-0.39,0.47-1.68,1-2.25-0.23c-0.57-1.23,0.59-5.14,0.59-5.14
						L424.06,151.45z"/>
				</g>
			</g>
		</g>
		<g>
			<g>
				<g>
					<path class="st8" d="M424.07,154.83c-0.77,0.3-1.8-0.41-2.4-1.56c0.08-0.84,0.06-0.35,0.23-1.04l2.13-1.05
						C424.04,151.85,424.1,154.06,424.07,154.83z"/>
				</g>
			</g>
		</g>
	</g>
	<g>
		<g>
			<g>
				<path class="st6" d="M420.31,149.99c-0.2-0.55,0.09-2.25,0.25-3.08c0.07-0.34,0.25-0.67,0.55-0.85
					c1.61-0.98,4.76-0.11,5.32,0.37c0.68,0.58,0.56,1.65,0.49,2.45c-0.07,0.8-1.07,4.71-3.64,4.28
					C420.48,152.69,420.57,151.57,420.31,149.99z"/>
			</g>
		</g>
	</g>
	<g>
		<g>
			<g>
				<g>
					<g>
						<g>
							<path class="st9" d="M413.99,254.12h-2.85c0,0-10.18-44.61,0-56.32c2.06-2.37,8.25-4.26,10.94,1.04
								C425.24,205.05,413.99,254.12,413.99,254.12z"/>
						</g>
					</g>
				</g>
			</g>
		</g>
	</g>
	<g>
		<g>
			<g>
				<g>
					<g>
						<g>
							<path class="st10" d="M428.74,254.05l2.83,0.33c0,0,15.97-43.07,7.24-55.89c-1.77-2.59-7.7-5.2-10.99-0.25
								C423.95,204.03,428.74,254.05,428.74,254.05z"/>
						</g>
					</g>
				</g>
			</g>
		</g>
	</g>
	<g>
		<g>
			<path class="st11" d="M440.86,194.73h-34.52c-0.64,0-1.16-0.52-1.16-1.16v-22.2c0-0.64,0.52-1.16,1.16-1.16h34.52
				c0.64,0,1.16,0.52,1.16,1.16v22.2C442.02,194.21,441.5,194.73,440.86,194.73z"/>
		</g>
		<g>
			<rect x="409.59" y="194.73" class="st12" width="5.72" height="0.68"/>
		</g>
		<g>
			<rect x="429.47" y="194.73" class="st12" width="5.72" height="0.68"/>
		</g>
		<g>
			<path class="st11" d="M441.12,196.88h-35.04c-0.35,0-0.64-0.28-0.64-0.64v-0.2c0-0.35,0.28-0.64,0.64-0.64h35.04
				c0.35,0,0.64,0.28,0.64,0.64v0.2C441.75,196.6,441.47,196.88,441.12,196.88z"/>
		</g>
		<g>
			<path class="st13" d="M426.84,181.14c0,1.53-1.24,2.77-2.77,2.77s-2.77-1.24-2.77-2.77s1.24-2.77,2.77-2.77
				S426.84,179.61,426.84,181.14z"/>
		</g>
	</g>
	<g>
		<path class="st6" d="M415.13,155.82c0,0,2.07,9.19,8.47,8.78c6.4-0.41,8.21-8.37,8.21-8.37s-4.08-0.88-9.37-0.99
			C420.09,155.2,417.66,155.43,415.13,155.82z"/>
	</g>
	<g>
		<path class="st2" d="M420.61,149.81c0,0,5.17-1.22,5.44-3.2c0.27-1.97-3.86-0.85-3.86-0.85S420.69,147.34,420.61,149.81z"/>
	</g>
	<g>
		<path class="st14" d="M427.63,142.38"/>
	</g>
	<g>
		<g>
			<path class="st9" d="M429.86,147h-11.91v-2.66c0-3.29,2.67-5.96,5.96-5.96l0,0c3.29,0,5.96,2.67,5.96,5.96V147z"/>
		</g>
		<g>
			<path class="st5" d="M421.3,147.12h-1.21l0.17-1.36c0.01-0.11,0.11-0.19,0.22-0.19h0.6c0.12,0,0.22,0.1,0.22,0.22V147.12z"/>
		</g>
		<g>
			<path class="st5" d="M426.58,147h1.21l-0.17-1.36c-0.01-0.11-0.11-0.19-0.22-0.19h-0.6c-0.12,0-0.22,0.1-0.22,0.22V147z"/>
		</g>
		<g>
			<path class="st9" d="M425.04,140.89h-2.27v-1.95c0-0.63,0.51-1.13,1.13-1.13l0,0c0.63,0,1.13,0.51,1.13,1.13V140.89z"/>
		</g>
		<g>
			<path class="st9" d="M422.91,140.89h-1.15v-1.42c0-0.63,0.51-1.15,1.15-1.15l0,0V140.89z"/>
		</g>
		<g>
			<path class="st9" d="M424.88,140.89h1.18v-1.39c0-0.65-0.53-1.18-1.18-1.18l0,0V140.89z"/>
		</g>
		<g>
			<path class="st5" d="M417.96,146.72c0,0,1.62,0.33,6.21,0.27c4.59-0.06,5.7-0.47,5.7-0.47s0.14,1.48-0.84,1.8
				c-0.91,0.3-7.53,0.89-10.08,0.04c-0.64-0.21-1.06-0.9-0.99-1.62C417.96,146.74,417.96,146.73,417.96,146.72z"/>
		</g>
		<g>
			<path class="st5" d="M422.78,138.38c0.03,0.27,0.04,0.54,0.06,0.81c0.01,0.27,0.02,0.54,0.02,0.81c0,0.27,0,0.54-0.02,0.81
				c-0.01,0.27-0.03,0.54-0.06,0.81c-0.03-0.27-0.04-0.54-0.06-0.81c-0.01-0.27-0.02-0.54-0.02-0.81c0-0.27,0-0.54,0.02-0.81
				C422.73,138.92,422.75,138.65,422.78,138.38z"/>
		</g>
		<g>
			<path class="st5" d="M424.96,138.38c0.03,0.27,0.04,0.54,0.06,0.81c0.01,0.27,0.02,0.54,0.02,0.81c0,0.27,0,0.54-0.02,0.81
				c-0.01,0.27-0.03,0.54-0.06,0.81c-0.03-0.27-0.04-0.54-0.06-0.81c-0.01-0.27-0.02-0.54-0.02-0.81c0-0.27,0-0.54,0.02-0.81
				C424.91,138.92,424.93,138.65,424.96,138.38z"/>
		</g>
		<g>
			<path class="st5" d="M421.81,138.76c0.04,0.25,0.05,0.5,0.05,0.74c0,0.25-0.01,0.5-0.05,0.74c-0.04-0.25-0.05-0.5-0.05-0.74
				C421.76,139.26,421.77,139.01,421.81,138.76z"/>
		</g>
		<g>
			<path class="st5" d="M425.97,138.76c0.04,0.27,0.05,0.54,0.05,0.81c0,0.27-0.01,0.54-0.05,0.81c-0.04-0.27-0.05-0.54-0.05-0.81
				C425.93,139.3,425.94,139.03,425.97,138.76z"/>
		</g>
	</g>
</g>
<g>
	<g>
		<path class="st15" d="M175.74,121.29c0,0-1.17-6.25-7.59-5.16c-2.9,0.49-2.5,2.72-4.97,2.22s-0.81,0.6-2.32,2.09
			c-1.51,1.48-7.48-1.59-9.04,0.53c-1.57,2.12-0.95,3.43-0.68,5.67c0.26,2.24-4.34-0.75-5.47,2.59s-1.22,12.27,11.49,16.18
			c8.6,2.65,19.96-11.63,21.13-15.46C179.23,126.86,180.76,118.3,175.74,121.29z"/>
	</g>
	<g>
		<path class="st16" d="M175.74,121.29c-0.49-1.66-1.44-3.24-2.89-4.13c-1.42-0.92-3.22-1.06-4.84-0.68
			c-0.81,0.18-1.48,0.59-2.07,1.2c-0.3,0.29-0.63,0.65-1.11,0.89c-0.48,0.24-1.02,0.25-1.49,0.19c-0.25-0.03-0.44-0.07-0.65-0.1
			c-0.2-0.03-0.41-0.05-0.54-0.03c-0.07,0.01-0.1,0.02-0.09,0.02c0.01-0.02,0,0.01-0.02,0.08c-0.03,0.16-0.05,0.42-0.11,0.66
			c-0.12,0.5-0.4,0.96-0.75,1.3c-0.42,0.4-0.99,0.55-1.45,0.58c-0.96,0.05-1.83-0.13-2.69-0.27c-0.86-0.15-1.71-0.32-2.55-0.38
			c-0.81-0.05-1.72-0.06-2.21,0.42c-0.06,0.06-0.12,0.11-0.18,0.18l-0.18,0.25c-0.12,0.17-0.22,0.35-0.32,0.53
			c-0.2,0.36-0.34,0.73-0.42,1.13c-0.16,0.79-0.03,1.64,0.08,2.5l0.08,0.65c0.02,0.21,0.07,0.43,0.03,0.71
			c-0.02,0.27-0.23,0.58-0.5,0.67c-0.25,0.1-0.49,0.12-0.72,0.12c-0.9-0.02-1.75-0.2-2.59-0.07c-0.85,0.1-1.59,0.69-1.89,1.53
			c0.12-0.42,0.33-0.82,0.65-1.14c0.32-0.32,0.76-0.5,1.19-0.61c0.88-0.2,1.79-0.08,2.62-0.12c0.43-0.03,0.78-0.12,0.78-0.45
			c0.02-0.15-0.03-0.37-0.06-0.59l-0.11-0.64c-0.15-0.85-0.34-1.75-0.19-2.69c0.07-0.47,0.22-0.92,0.43-1.33
			c0.1-0.21,0.22-0.41,0.35-0.6l0.19-0.28c0.08-0.1,0.18-0.19,0.27-0.29c0.18-0.21,0.43-0.29,0.65-0.42
			c0.23-0.07,0.48-0.16,0.71-0.18c0.47-0.07,0.94-0.07,1.39-0.04c0.9,0.06,1.77,0.22,2.63,0.35c0.85,0.13,1.72,0.29,2.5,0.23
			c0.4-0.02,0.72-0.12,0.94-0.32c0.28-0.27,0.47-0.58,0.56-0.93c0.05-0.18,0.06-0.36,0.12-0.63c0.04-0.13,0.08-0.33,0.26-0.49
			c0.17-0.16,0.37-0.19,0.51-0.21c0.57-0.05,1,0.11,1.4,0.15c0.39,0.06,0.76,0.05,1.07-0.1c0.32-0.14,0.6-0.43,0.92-0.74
			c0.62-0.65,1.52-1.16,2.43-1.3c1.76-0.33,3.72-0.1,5.2,0.97C174.55,117.9,175.43,119.58,175.74,121.29z"/>
	</g>
	<g>
		<path class="st1" d="M168.73,235.74c-0.34-0.51-1.8-0.82-2.96-1.02c0.36,0.17,0.73,0.42,0.22,0.64c-0.74,0.32-2.5-0.08-3.07-0.57
			c-0.13,0.44-0.1,1.01-0.05,1.41C162.94,236.7,169.28,236.56,168.73,235.74z"/>
	</g>
	<g>
		<path class="st1" d="M137.75,243.23c-0.2-0.57,1.91-2.35,2.71-2.68c-0.24,0.21-0.59,0.65-0.22,0.82c0.54,0.25,1.62-0.14,1.99-0.71
			c0.13,0.44,0.15,1.05,0.14,1.47C142.36,242.67,138.21,244.57,137.75,243.23z"/>
	</g>
	<g>
		<path class="st6" d="M166.46,234.85c-0.66-0.3-2.54-0.52-2.59-0.63c0.77-3.12,4.85-33.83,4.78-40.59
			c-0.12-11.82-4.51-41.62-5.92-44.32c-3.15-0.95-10.63,0.88-15.63,0.85c-0.04,0.24-5.55,5.36-8.36,11.31
			c-4.37,9.27,2.16,68.24,2.68,78.6c-0.1,0.05-0.41,0.16-1.06,0.58c-0.25,0.2-1.13,1.02-0.77,1.2c0.53,0.27,2.27-0.54,2.66-1.1
			c-0.03-0.13-0.07-0.25-0.12-0.34c-0.05-0.08,11.05-67.28,11.05-67.28l5.59,21.03c0,0,4.15,40.75,4.11,40.82
			c0.42,0.62,2.22,0.73,3.01,0.61C166.43,235.5,166.77,235.1,166.46,234.85z"/>
	</g>
	<g>
		<path class="st7" d="M147.72,149.71c0,0-5.42,2.7-9.88,12.21c-1.57,3.34-2.24,23.01-2.02,27.73l4.41-0.46l0.47-16.77l1.46,16.56
			c0,0,19.22,0.15,27.57-4.07c0,0,1.27-17.51-7.54-39.88L147.72,149.71z"/>
	</g>
	<g>
		<path class="st1" d="M154.89,188.34c0,0,0.67-0.07,1-0.11c5.05-0.57,10.37-1.57,13.83-3.32c0,0,1.27-17.51-7.54-39.88l-6.01,1.94
			l-1.64,0.26c0,0,5.65,7.97,4.71,17C158.06,175.64,154.89,188.34,154.89,188.34z"/>
	</g>
	<g>
		<path class="st17" d="M145.71,148.65"/>
	</g>
	<g>
		<g>
			<g>
				<g>
					<g>
						<path class="st18" d="M160.34,128.72c2.6,0.37,8.42,3.46,9.03,3.76c2.52,1.25,3.93,1.09,3.65,5.13
							c-0.16,2.33-1.56,5.3-2.22,6.5c-3.15,5.69-7,10.77-7,10.77s-5.01,0.84-9.85-1c-5.55-2.12-6.23-4.17-6.23-4.17
							s0.62-6.39,5.74-17.19C153.79,131.82,157.28,128.28,160.34,128.72z"/>
					</g>
				</g>
			</g>
		</g>
	</g>
	<g>
		<g>
			<g>
				<path class="st19" d="M178.93,151.5c0,0,8.65,8.01,12.58,8.87c0.3,0.07,1.48,0.28,2.14,0.2c2.21-0.26,5.07-2.71,1.23-6.18
					c-6.4-5.79-14.04-8.13-14.04-8.13S182.07,148.45,178.93,151.5z"/>
			</g>
		</g>
	</g>
	<g>
		<g>
			<g>
				<path class="st19" d="M171.74,133.61c-2.57-2.12-4.81,3.74,7.2,17.89c1.3,1.53,5.19-0.87,3.43-3.18
					C177.79,142.31,174.43,135.83,171.74,133.61z"/>
			</g>
		</g>
	</g>
	<g>
		<g>
			<g>
				
					<rect x="189.37" y="153.22" transform="matrix(0.8141 -0.5808 0.5808 0.8141 -53.735 142.4562)" class="st12" width="12.5" height="3.86"/>
			</g>
		</g>
	</g>
	<g>
		<g>
			<g>
				<path class="st12" d="M174.62,174.05l-3.7-5.18c-0.25-0.35-0.17-0.84,0.18-1.09l17.34-12.37c0.77-0.55,1.84-0.37,2.39,0.4
					l2.61,3.66c0.55,0.77,0.37,1.84-0.4,2.39l-17.34,12.37C175.35,174.48,174.87,174.4,174.62,174.05z"/>
			</g>
		</g>
		<g>
			<g>
				<path class="st20" d="M178.07,172.54l-4.6-6.45l14.98-10.68c0.77-0.55,1.84-0.37,2.39,0.4l2.61,3.66
					c0.55,0.77,0.37,1.84-0.4,2.39L178.07,172.54z"/>
			</g>
		</g>
	</g>
	<g>
		<g>
			<path class="st21" d="M235.9,133.9c2.18,8.67-3.87,19.19-13.48,23.45c-4.68,2.08-9.51,2.39-13.61,0.87
				c-4.1-1.51-6.96-4.66-8.05-8.87l-0.03-0.11c-2.18-8.67,3.87-19.19,13.48-23.45c9.68-4.29,19.4-0.71,21.66,7.99L235.9,133.9
				 M239.79,132.2c-0.01-0.05-0.02-0.09-0.04-0.14c-2.77-10.63-14.64-15.01-26.46-9.76c-11.77,5.22-19.13,18.05-16.46,28.65
				c0.01,0.05,0.02,0.09,0.04,0.14c2.77,10.63,14.64,15.01,26.46,9.76C235.1,155.62,242.46,142.8,239.79,132.2L239.79,132.2z"/>
		</g>
	</g>
	<g>
		<g>
			<path class="st20" d="M234.47,132.31c2.18,8.67-3.87,19.19-13.48,23.45c-4.68,2.08-9.51,2.39-13.61,0.87
				c-4.1-1.51-6.96-4.66-8.05-8.87l-0.03-0.11c-2.18-8.67,3.87-19.19,13.48-23.45c9.68-4.29,19.4-0.71,21.66,7.99L234.47,132.31
				 M238.37,130.61c-0.01-0.05-0.02-0.09-0.04-0.14c-2.77-10.63-14.64-15.01-26.46-9.76c-11.77,5.22-19.13,18.05-16.46,28.65
				c0.01,0.05,0.02,0.09,0.04,0.14c2.77,10.63,14.64,15.01,26.46,9.76C233.68,154.03,241.03,141.21,238.37,130.61L238.37,130.61z"/>
		</g>
	</g>
	<g class="st22">
		<g>
			<path class="st17" d="M221.22,156.63c-10.23,4.54-20.47,0.76-22.86-8.43c-2.39-9.2,3.96-20.33,14.19-24.87
				c10.23-4.54,20.47-0.76,22.86,8.43C237.81,140.96,231.45,152.09,221.22,156.63z"/>
		</g>
	</g>
	<g>
		<g>
			<path class="st6" d="M194.1,158.89c0.06,0,0.11,0.03,0.16,0.01c0.44-0.21,2.54-1.27,2.42-2.14c-0.18-1.34-1.71-2.04-2.11-1.77
				c-0.36,0.25,0.25,0.95,0.25,0.95s0.03-0.17-0.36-0.04s0.09,0.91,0.14,1.38C194.65,157.72,193.38,158.87,194.1,158.89z"/>
		</g>
	</g>
	<g>
		<g>
			<path class="st6" d="M179.74,165.01c0,0,0.37-0.17,0.72-0.35c0.4-0.21,0.78-0.46,0.56-0.52c-0.22-0.06-0.59-0.02-0.98,0.08
				c-0.87,0.22-1.79,0.7-1.08,0.83C179.41,165.14,179.74,165.01,179.74,165.01z"/>
		</g>
		<g>
			<path class="st6" d="M177.97,165c0.07-0.12,0.2-0.2,0.34-0.22c0.48-0.07,1.63-0.22,2.12-0.15c0.64,0.09,2.26,1.08,2.31,1.43
				c0.05,0.35-0.81,0.05-0.81,0.05s0.95,0.28,0.89,0.73c-0.06,0.44-1.56,0.09-1.56,0.09s0.42,0.59,0.09,0.57
				c-0.25-0.01-1.06-0.25-1.6-0.4c-0.16-0.05-0.76-0.25-0.89-0.35c-0.41-0.3-1.28-0.96-1.27-1.06
				C177.6,165.59,177.83,165.23,177.97,165z"/>
		</g>
	</g>
	<g>
		<path class="st19" d="M158.17,154.9c0,0,9.17-11.68,9.98-19.01c0.14-1.23-0.53-3.45,0.13-3.98c0.66-0.52,3.93,1.76,4.29,2.48
			c0.36,0.72,0.85,5.51-2.19,10.46c-3.04,4.95-5.93,10.51-5.93,10.51S158.4,155.32,158.17,154.9z"/>
	</g>
	<g>
		<g>
			<g>
				<path class="st17" d="M156.85,130.21c-1.24,1.31-2.28,5.37-1.01,10.32c1.15,4.47,3.63,12.99,8.28,15.9
					c3.44,2.15,1.24-6.41,1.24-6.41l-4.18-10.95C161.18,139.06,158.21,128.77,156.85,130.21z"/>
			</g>
		</g>
	</g>
	<g>
		<g>
			<g>
				<path class="st17" d="M160.42,150.42c-0.66,4,10.53,17.82,16.31,15.81c2.15-0.75,2.3-2.25,2.3-2.25l-14.1-15.11
					C164.93,148.88,161.16,145.91,160.42,150.42z"/>
			</g>
		</g>
	</g>
	<g>
		<g>
			<path class="st6" d="M171.26,127.86c0,0-3.33,3.3-3.47,3.86c-0.14,0.56,0.12,1.65,1.26,1.07c1.14-0.58,3.3-4.06,3.3-4.06
				L171.26,127.86z"/>
		</g>
		<g>
			<path class="st8" d="M171.73,127.26c0,0-3.33,3.3-3.47,3.86c-0.14,0.56,0.24,1.69,1.37,1.11c1.14-0.58,3.19-4.1,3.19-4.1
				L171.73,127.26z"/>
		</g>
	</g>
	<g>
		<path class="st6" d="M175.45,126.52c-0.49-1.99-4.27-2.85-5.06-2.67c-0.86,0.2-1.25,1.19-1.56,1.92c-0.3,0.73-1,4.11,1.22,5.43
			C174.21,133.69,175.45,126.52,175.45,126.52z"/>
	</g>
	<g>
		<path class="st15" d="M164.89,127.28c0,0,5.84,1.79,9.36-2.28c0,0-0.44,3.57,2.2,5.41c0,0,2.34-4.39-1.2-7.57
			C171.72,119.66,164.71,124.95,164.89,127.28z"/>
	</g>
</g>
<g>
	<g>
		<g>
			<g>
				<path class="st1" d="M669.72,254.47c2.34-0.52-0.47-3.2-2.39-3.51c0.52,0.26,1.16,0.63,0.35,0.82
					c-1.19,0.28-2.83-0.78-3.62-1.46c-0.28,0.51-0.34,1.22-0.33,1.71C663.75,252.66,667.97,254.86,669.72,254.47z"/>
			</g>
		</g>
		<g>
			<g>
				<path class="st6" d="M667.63,252.09c0.83-0.12,0.36-0.98-0.23-1.32c-2-1.15-1.9-1.93-1.9-1.93l-1-0.01c0,0-0.36,1.34-0.44,1.49
					C664.58,251.08,665.86,252.35,667.63,252.09z"/>
			</g>
		</g>
	</g>
	<g>
		<g>
			<g>
				<path class="st1" d="M636.27,253.62c-0.34-2.38,2.8-2.16,4.59-2.57c-0.48,0.31-1.07,0.76-0.3,0.97c1.13,0.3,3.58-0.08,4.3-0.9
					c0.28,0.6,0.36,1.44,0.36,2.01C645.22,253.87,636.36,254.25,636.27,253.62z"/>
			</g>
		</g>
		<g>
			<g>
				<path class="st6" d="M640.56,252.02c-0.77-0.21-1.01-0.74,0.16-0.94c1.04-0.18,1.89-0.57,2.08-0.66
					c0.49-0.23,0.66-1.01,0.66-1.01l0.94-0.04c0,0,0.38,1.58,0.46,1.75C644.14,251.94,641.69,252.32,640.56,252.02z"/>
			</g>
		</g>
	</g>
	<g>
		<g>
			<path class="st1" d="M634.36,171.45c1.86-4.96,3.38-8.51,4.5-9.02c5.98-2.58,14.4-6.15,15.52-5.91
				c1.07,0.61,7.83,10.7,9.02,17.18c2.85,15.51,2.88,69.44,2.98,74.92c0,0.25-0.18,0.47-0.43,0.5l-1.6,0.24
				c-0.24,0.04-0.48-0.11-0.55-0.34c-1.02-3.23-7.84-25.08-11.59-43.93c-2.58-12.97-4.2-24.01-4.87-24.41
				c-1.79,5.67-1.44,58.52-2.56,68.79c-0.19,1.71-3.4,0.37-3.4-1.02c0-6.12-7.59-26.31-9.64-46.25
				C630.32,188.47,631.58,178.87,634.36,171.45z"/>
		</g>
	</g>
	<g>
		<g>
			<path class="st7" d="M634.36,171.45c1.86-4.96,3.38-8.51,4.5-9.02c1.58-0.68,3.33-1.43,5.07-2.16
				c2.32-0.98-4.74,14.47-5.51,36.17c-0.31,8.72,1.73,20,2.31,28.33c0.72,10.17,1.6,15.43,1.98,19.82c0.17,1.95,0.78,5.68,0.67,5.65
				c-1.45-0.39-1.9-1.27-2.02-1.78c-1.46-6.32-7.59-26.31-9.64-46.25C630.32,188.47,631.58,178.87,634.36,171.45z"/>
		</g>
	</g>
	<g>
		<g>
			<path class="st13" d="M612.54,159.6c1.82-1.2,10.02-5.02,10.02-5.02s5.38-7.76,6.96-9.56c0.73-0.83,1.63-1.64,1.63-1.64
				c0.87-0.81,2.92-1.36,5.97-1.8c-0.94,2.35-6.93,10.16-6.92,9.83c-1.14,1.87-2.56,3.97-4.18,5.82c-1.78,2.04-2.98,3.31-5.87,6.03
				c-2.84,2.67-9.26,1.01-9.26,1.01S610.72,160.8,612.54,159.6z"/>
		</g>
	</g>
	<g>
		<path class="st13" d="M648.86,142.55c0.99,2.91,2.96,8.12,6.18,14.46c0,0,0.46,1.45-5.54,5c-5.65,3.35-12.52,3.04-12.52,3.04
			s-2.87-4.47-5.35-10.04c-2.66-5.97-2.04-10.11-1.1-11.14c0.38-0.42,6.92-5.61,13.53-5.14
			C646.27,138.9,648.14,140.45,648.86,142.55z"/>
	</g>
	<g>
		<g>
			<g>
				
					<rect x="607.18" y="152.35" transform="matrix(0.6279 -0.7783 0.7783 0.6279 103.221 534.0397)" class="st11" width="5.92" height="13.43"/>
			</g>
		</g>
		<g>
			<path class="st7" d="M581.23,109.97L581.23,109.97c5.94,0,11.52,1.97,16.14,5.7c5.34,4.31,8.69,10.46,9.42,17.3
				c0.73,6.85-1.24,13.56-5.55,18.9c-4.91,6.08-12.22,9.57-20.07,9.57c-5.94,0-11.52-1.97-16.14-5.7
				c-5.34-4.31-8.69-10.46-9.42-17.3c-0.73-6.85,1.24-13.56,5.55-18.9C566.06,113.46,573.38,109.97,581.23,109.97 M581.23,102.79
				c-9.62,0-19.16,4.19-25.66,12.24c-11.4,14.13-9.18,34.91,4.95,46.31c6.08,4.9,13.39,7.29,20.65,7.29
				c9.62,0,19.16-4.19,25.66-12.24c11.4-14.13,9.18-34.91-4.95-46.31C595.8,105.18,588.49,102.79,581.23,102.79L581.23,102.79z"/>
		</g>
		<g>
			<g>
				
					<rect x="622.83" y="156.77" transform="matrix(-0.6279 0.7783 -0.7783 -0.6279 1159.3943 -205.8661)" class="st15" width="12.15" height="34.86"/>
			</g>
			<g>
				
					<rect x="622.83" y="159.41" transform="matrix(-0.6279 0.7783 -0.7783 -0.6279 1159.3899 -205.8723)" class="st7" width="12.15" height="29.58"/>
			</g>
		</g>
		<g class="st22">
			
				<ellipse transform="matrix(0.2378 -0.9713 0.9713 0.2378 311.1725 667.9637)" class="st17" cx="581.2" cy="135.71" rx="28.45" ry="28.45"/>
		</g>
	</g>
	<g>
		<g>
			<path class="st6" d="M612.81,165.57c-0.06,0.01-0.12,0.05-0.18,0.03c-0.51-0.18-2.98-1.12-2.95-2.1
				c0.05-1.51,1.66-2.48,2.14-2.22c0.43,0.23-0.16,1.08-0.16,1.08s-0.06-0.19,0.4-0.08c0.45,0.11,0.01,1.02,0,1.55
				C612.05,164.33,613.6,165.47,612.81,165.57z"/>
		</g>
	</g>
	<g>
		<g>
			<path class="st6" d="M621.54,166.18c0,0-0.32-0.25-0.62-0.52c-0.34-0.3-0.65-0.63-0.42-0.64c0.23-0.01,0.58,0.13,0.94,0.31
				c0.79,0.42,1.58,1.11,0.85,1.07C621.84,166.38,621.54,166.18,621.54,166.18z"/>
		</g>
		<g>
			<path class="st6" d="M623.28,166.58c-0.04-0.13-0.15-0.24-0.28-0.3c-0.45-0.18-1.53-0.6-2.03-0.65c-0.64-0.07-2.46,0.51-2.6,0.84
				c-0.13,0.33,0.78,0.24,0.78,0.24s-1,0.05-1.04,0.5c-0.05,0.45,1.5,0.45,1.5,0.45s-0.54,0.47-0.22,0.53
				c0.25,0.05,1.09,0.01,1.65-0.01c0.17-0.01,0.8-0.06,0.95-0.13c0.47-0.2,1.47-0.64,1.49-0.73
				C623.49,167.25,623.36,166.84,623.28,166.58z"/>
		</g>
	</g>
	<g>
		<path class="st13" d="M646.26,163.54c-4.73,1.72-9.27,1.52-9.27,1.52s-2.72-4.54-5.35-10.04c-2.86-5.98-2.01-10.08-1.1-11.14
			c0.79-0.93,3.65-2.49,3.65-2.49s-1.23,7,1.49,12.32C638.71,159.65,646.83,163.33,646.26,163.54z"/>
	</g>
	<g>
		<path class="st13" d="M642.89,139.18c0.4-0.69,2.77,0.14,3.24,0.79c1.17,1.63,1.59,2.55,2.64,5.49
			c1.61,4.53,1.42,13.69-1.63,18.52c-2.25,3.57-19.63,9.49-23.51,4.43c-1.44-1.88-0.71-3.27-0.71-3.27l20.15-6.61l-1.04-12.16
			C642.03,146.38,641.3,141.91,642.89,139.18z"/>
	</g>
	<g>
		<path class="st23" d="M648.76,145.46c0.66,1.46,1.02,3.05,1.2,4.64c0.19,1.6,0.21,3.21,0.1,4.81c-0.13,1.6-0.38,3.2-0.84,4.75
			c-0.45,1.54-1.12,3.05-2.09,4.32c0.7-1.43,1.14-2.95,1.49-4.47c0.33-1.53,0.54-3.09,0.65-4.65c0.12-1.56,0.14-3.13,0.08-4.7
			C649.27,148.59,649.13,147.02,648.76,145.46z"/>
	</g>
	<g>
		<path class="st23" d="M638.42,160.06c0.75-0.32,1.51-0.61,2.27-0.91c0.76-0.31,1.53-0.57,2.29-0.86l-0.18,0.27
			c-0.25-2.02-0.47-4.04-0.65-6.07c-0.19-2.02-0.34-4.05-0.47-6.08l0,0.03c-0.09-0.64-0.1-1.25-0.1-1.88c0-0.62,0.04-1.25,0.11-1.87
			c0.16-1.23,0.5-2.48,1.2-3.5c-0.25,0.56-0.43,1.15-0.56,1.74c-0.12,0.6-0.16,1.2-0.2,1.8c-0.06,1.2,0.04,2.43,0.23,3.6l0,0.01
			l0,0.01c0.21,2.02,0.41,4.05,0.57,6.07c0.17,2.03,0.3,4.06,0.39,6.09l0,0.02c0.01,0.12-0.07,0.22-0.18,0.25
			c-0.78,0.22-1.56,0.46-2.35,0.66C640,159.66,639.22,159.88,638.42,160.06z"/>
	</g>
	<g>
		<g>
			<path class="st6" d="M634.05,137.99c0,0,2.54,2.39,2.47,2.9c-0.07,0.51-0.84,1.63-1.94,1.35c-1.1-0.29-2.18-3.14-2.18-3.14
				L634.05,137.99z"/>
		</g>
		<g>
			<path class="st8" d="M635.81,139.79c-0.46,0.67-1.11,1.16-2.5,1.16c-0.37-0.5-0.37-0.65-0.59-1.12l1.91-1.28
				C634.98,138.89,635.43,139.36,635.81,139.79z"/>
		</g>
	</g>
	<g>
		<path class="st6" d="M629.08,139.76c-0.32-0.3-0.84-1.71-1.24-2.9c-0.33-0.99,0.22-2.05,1.22-2.36c1.54-0.48,3.28-0.91,3.84-0.78
			c0.88,0.21,1.27,1.22,1.58,1.97c0.31,0.75,0.59,2.19,0.37,3c-0.2,0.74-1.22,1.7-1.92,1.95
			C630.85,141.37,630.06,141.06,629.08,139.76z"/>
	</g>
	<g>
		<path class="st7" d="M631.49,135.11c0,0-2.13,2.87-4.86,2.64c-2.73-0.23-2.03-1.31-2.03-1.31s5.51-2.07,6.74-1.33"/>
	</g>
	<g>
		<path class="st7" d="M631.49,134.12c0,0,1.5,4.54,3.2,4.2c0.75-0.15,0.75-4.2,0.75-4.2H631.49z"/>
	</g>
	<g>
		<g>
			<path class="st24" d="M628.82,135.44l0,0.56c0,0.15,0.12,0.28,0.28,0.28c0.15,0,0.28-0.12,0.28-0.28l0-0.56L628.82,135.44z
				 M629.1,136.11c-0.06,0-0.11-0.05-0.11-0.11c0-0.06,0.05-0.11,0.11-0.11c0.06,0,0.11,0.05,0.11,0.11
				C629.21,136.06,629.16,136.11,629.1,136.11z"/>
		</g>
		<g>
			<path class="st2" d="M632.32,135.49l0.68,1.02c0.05,0.07,0.13,0.11,0.21,0.11l1.45-0.04l0.09,0.27c0,0,0.59-0.49,0.69-0.9
				C635.53,135.55,632.32,135.49,632.32,135.49z"/>
		</g>
		<g>
			<path class="st9" d="M624.19,136.55c0,0-0.4,0.59,3.09-0.21c0.25-0.06,0.49-0.14,0.72-0.24c0.64-0.28,2.19-0.87,3.45-0.69
				c1.64,0.24,1.4,0.7,2.59,0.75c1.19,0.04,2.27-0.15,2.29-0.41c0,0,0.01-0.09-0.3-0.11l-0.18-1.25l-0.21-0.15
				c0,0-0.37-4.42-4.26-4.55c-3.89-0.12-4.58,1.97-4.98,2.96c-0.26,0.66-0.44,1.74-0.54,2.4c-0.05,0.33-0.27,0.62-0.58,0.75
				C624.85,135.99,624.26,136.29,624.19,136.55z"/>
		</g>
		<g>
			<path class="st24" d="M635.76,134.32c0,0-1.14,0.5-3.51,0c-2.37-0.5-2.88,0.08-4.01,0.22c-1.13,0.14-1.67,0.25-1.67,0.25
				s-0.51,0.9-0.7,1.02c0,0,0.81,0.43,2.77-0.2c1.97-0.63,2.63-0.61,3.46-0.37c0.83,0.24,1.2,0.69,1.92,0.71
				c0.71,0.02,1.93-0.13,2.01-0.31C636.03,135.64,635.88,134.41,635.76,134.32z"/>
		</g>
		<g>
			<path class="st9" d="M626.89,135.95l0.05-0.75c0.01-0.08,0.07-0.14,0.15-0.15l0.53-0.04c0.09-0.01,0.17,0.06,0.17,0.15l0.04,0.67
				C627.83,135.83,627.36,136,626.89,135.95z"/>
		</g>
		<g>
			<path class="st24" d="M627.67,131.23c0.46-0.48,1.03-0.84,1.65-1.1c0.31-0.13,0.64-0.21,0.98-0.27c0.34-0.05,0.69-0.04,1.01-0.02
				c0.33,0.03,0.67,0.07,1,0.15c0.33,0.08,0.65,0.19,0.95,0.36c0.6,0.33,1.07,0.84,1.42,1.39c-0.47-0.47-0.96-0.89-1.54-1.15
				c-0.58-0.26-1.21-0.36-1.85-0.41c-0.32-0.02-0.63-0.03-0.95,0c-0.31,0.03-0.62,0.1-0.93,0.19
				C628.81,130.58,628.22,130.86,627.67,131.23z"/>
		</g>
	</g>
</g>
<g>
	<path class="st13" d="M356.84,184.35c-0.03-0.34-0.27-0.64-0.6-0.76l-1.86-0.66c-0.29-0.1-0.5-0.34-0.58-0.62
		c-0.17-0.66-0.38-1.32-0.66-1.98c-0.27-0.65-0.59-1.27-0.95-1.86c-0.15-0.26-0.17-0.57-0.03-0.83l0.87-1.72
		c0.16-0.31,0.12-0.68-0.11-0.95c-0.7-0.84-1.48-1.6-2.32-2.28c-0.27-0.22-0.65-0.27-0.98-0.12l-1.8,0.8
		c-0.28,0.12-0.6,0.11-0.86-0.05c-1.23-0.72-2.56-1.27-3.95-1.62c-0.3-0.08-0.53-0.29-0.63-0.57l-0.65-1.81
		c-0.12-0.32-0.41-0.56-0.77-0.59c-0.28-0.03-0.56-0.05-0.85-0.07c-0.05,0-0.1,0-0.15,0c-0.24-0.01-0.47-0.02-0.71-0.02
		c-0.01,0-0.01,0-0.02,0v0c-0.53,0-1.06,0.01-1.6,0.06c-0.36,0.03-0.66,0.26-0.78,0.58l-0.68,1.8c-0.11,0.28-0.35,0.49-0.65,0.56
		c-0.69,0.16-1.37,0.37-2.05,0.63s-1.32,0.57-1.93,0.91c-0.27,0.15-0.59,0.16-0.86,0.03l-1.78-0.84c-0.32-0.15-0.7-0.11-0.98,0.1
		c-0.87,0.68-1.66,1.43-2.37,2.24c-0.23,0.26-0.28,0.63-0.13,0.94l0.83,1.74c0.13,0.27,0.11,0.58-0.05,0.83
		c-0.74,1.19-1.31,2.47-1.68,3.81c-0.08,0.29-0.3,0.51-0.59,0.61l-1.88,0.62c-0.34,0.11-0.58,0.4-0.62,0.74
		c-0.11,1.06-0.13,2.13-0.04,3.2c0.03,0.34,0.27,0.64,0.6,0.76l1.86,0.66c0.29,0.1,0.5,0.34,0.58,0.62
		c0.17,0.66,0.38,1.32,0.66,1.98c0.27,0.65,0.59,1.27,0.94,1.86c0.15,0.26,0.17,0.57,0.03,0.83l-0.87,1.72
		c-0.16,0.31-0.12,0.68,0.11,0.95c0.7,0.84,1.48,1.6,2.32,2.28c0.27,0.22,0.65,0.27,0.98,0.12l1.8-0.8c0.28-0.12,0.6-0.11,0.86,0.05
		c1.23,0.72,2.56,1.27,3.95,1.62c0.3,0.08,0.53,0.29,0.63,0.57l0.65,1.81c0.12,0.32,0.41,0.56,0.77,0.59
		c0.65,0.07,1.3,0.09,1.96,0.09v0c0.1,0,0.2,0,0.29-0.01c0.1,0,0.21,0,0.31-0.01c0.25-0.01,0.5-0.02,0.75-0.04
		c0.36-0.03,0.66-0.26,0.78-0.58l0.68-1.8c0.11-0.28,0.35-0.49,0.65-0.56c0.69-0.16,1.37-0.37,2.05-0.63
		c0.68-0.26,1.32-0.57,1.93-0.91c0.27-0.15,0.59-0.16,0.86-0.03l1.78,0.84c0.32,0.15,0.7,0.11,0.98-0.11
		c0.87-0.68,1.66-1.43,2.37-2.24c0.23-0.26,0.28-0.63,0.13-0.94l-0.83-1.74c-0.13-0.27-0.11-0.58,0.05-0.83
		c0.74-1.19,1.31-2.47,1.68-3.81c0.08-0.29,0.3-0.51,0.59-0.61l1.88-0.62c0.34-0.11,0.58-0.4,0.62-0.74
		C356.92,186.49,356.94,185.42,356.84,184.35z M339.26,194.28c-4.73,0-8.56-3.7-8.56-8.26c0-4.56,3.83-8.26,8.56-8.26
		c4.73,0,8.56,3.7,8.56,8.26C347.81,190.58,343.98,194.28,339.26,194.28z"/>
</g>
<g>
	<path class="st13" d="M324.49,164.38c-0.02-0.58-0.07-1.16-0.14-1.73c-0.01-0.04-0.01-0.08-0.03-0.12
		c-0.06-0.2-0.19-0.36-0.36-0.47c-0.07-0.04-0.15-0.08-0.23-0.1l-2.11-0.55c-0.22-0.06-0.4-0.2-0.51-0.39
		c-0.04-0.06-0.07-0.13-0.09-0.21c-0.1-0.37-0.22-0.74-0.35-1.1c-0.13-0.36-0.27-0.71-0.43-1.06c-0.03-0.07-0.05-0.14-0.06-0.21
		c-0.04-0.22,0.01-0.44,0.14-0.62l1.28-1.78c0.2-0.27,0.21-0.64,0.03-0.93c-0.62-0.98-1.33-1.89-2.12-2.73
		c-0.23-0.24-0.59-0.32-0.9-0.2l-2.04,0.8c-0.07,0.03-0.14,0.04-0.21,0.05c-0.04,0-0.07,0-0.11,0c-0.08,0-0.16-0.02-0.24-0.04
		c-0.09-0.03-0.18-0.08-0.26-0.14c-0.3-0.24-0.61-0.47-0.93-0.68c-0.32-0.22-0.64-0.42-0.98-0.61c-0.16-0.09-0.29-0.23-0.36-0.4
		c-0.04-0.1-0.07-0.21-0.07-0.32l-0.01-2.2c0-0.34-0.2-0.64-0.51-0.77c-1.06-0.42-2.17-0.75-3.32-0.96
		c-0.33-0.06-0.67,0.09-0.85,0.37l-1.18,1.85c-0.16,0.25-0.45,0.39-0.74,0.38c-0.38-0.02-0.76-0.02-1.15-0.01
		c-0.39,0.01-0.77,0.04-1.15,0.08c-0.3,0.03-0.59-0.09-0.77-0.33l-1.29-1.77c-0.2-0.27-0.54-0.4-0.87-0.32
		c-1.13,0.29-2.22,0.68-3.25,1.17c-0.3,0.14-0.49,0.46-0.47,0.8l0.13,2.19c0.02,0.3-0.13,0.58-0.38,0.74
		c-0.64,0.43-1.25,0.9-1.82,1.41c-0.22,0.2-0.53,0.27-0.81,0.18l-2.09-0.67c-0.32-0.1-0.67-0.01-0.89,0.25
		c-0.73,0.89-1.39,1.84-1.95,2.85c-0.16,0.29-0.12,0.66,0.09,0.92l1.39,1.7c0.19,0.23,0.23,0.54,0.13,0.82
		c-0.27,0.71-0.48,1.45-0.64,2.2c-0.06,0.3-0.27,0.54-0.56,0.63l-2.07,0.68c-0.32,0.1-0.55,0.39-0.57,0.73
		c-0.04,0.57-0.05,1.15-0.03,1.73c0.02,0.58,0.07,1.16,0.14,1.73c0.04,0.33,0.29,0.6,0.61,0.69l2.11,0.55
		c0.29,0.08,0.52,0.31,0.6,0.6c0.21,0.74,0.47,1.47,0.78,2.16c0.12,0.27,0.1,0.59-0.08,0.83l-1.28,1.78
		c-0.2,0.27-0.21,0.64-0.03,0.93c0.62,0.98,1.33,1.89,2.12,2.73c0.23,0.24,0.59,0.32,0.9,0.2l2.04-0.8
		c0.28-0.11,0.59-0.06,0.82,0.13c0.6,0.48,1.24,0.91,1.9,1.29c0.26,0.15,0.42,0.42,0.42,0.72l0.01,2.2c0,0.34,0.2,0.64,0.51,0.77
		c1.06,0.42,2.17,0.75,3.32,0.96c0.33,0.06,0.67-0.09,0.85-0.37l1.18-1.85c0.16-0.25,0.45-0.39,0.74-0.38
		c0.38,0.02,0.76,0.02,1.15,0.01c0.39-0.01,0.77-0.04,1.15-0.08c0.15-0.02,0.3,0.01,0.43,0.06c0.13,0.06,0.25,0.15,0.34,0.27
		l1.29,1.77c0.02,0.03,0.05,0.07,0.08,0.09c0.09,0.09,0.19,0.15,0.31,0.2c0.15,0.06,0.32,0.07,0.48,0.03
		c0.57-0.14,1.12-0.31,1.66-0.51c0.54-0.19,1.07-0.41,1.59-0.66c0.3-0.14,0.49-0.46,0.47-0.8l-0.13-2.19
		c-0.02-0.3,0.13-0.58,0.38-0.74c0.64-0.43,1.25-0.9,1.82-1.41c0.08-0.07,0.18-0.13,0.28-0.17c0.1-0.04,0.21-0.05,0.32-0.05
		c0.07,0,0.14,0.02,0.22,0.04l2.09,0.67c0.12,0.04,0.24,0.05,0.37,0.03c0.2-0.03,0.39-0.12,0.52-0.29c0.73-0.89,1.39-1.84,1.95-2.85
		c0.04-0.07,0.07-0.15,0.08-0.23c0.05-0.24-0.02-0.49-0.18-0.69l-1.39-1.7c-0.14-0.17-0.2-0.39-0.18-0.61
		c0.01-0.07,0.02-0.14,0.05-0.21c0.27-0.71,0.48-1.45,0.64-2.2c0.02-0.07,0.04-0.15,0.07-0.21c0.1-0.2,0.27-0.35,0.49-0.42
		l2.07-0.68c0.32-0.1,0.55-0.39,0.57-0.73C324.49,165.54,324.51,164.96,324.49,164.38z M316.27,171.33
		c-0.2,0.32-0.43,0.64-0.66,0.94c-0.35,0.45-0.74,0.88-1.15,1.28c-0.55,0.53-1.15,1.01-1.8,1.43c-0.16,0.1-0.33,0.21-0.49,0.3
		c-0.33,0.19-0.68,0.37-1.03,0.54c-1.41,0.65-2.97,1.03-4.63,1.08c-6.6,0.21-12.13-4.98-12.33-11.59s4.98-12.13,11.59-12.33
		c0.12,0,0.25,0,0.37,0c0.6,0,1.2,0.04,1.78,0.13c0,0,0,0,0,0c0.19,0.03,0.38,0.06,0.57,0.1c0,0,0,0,0,0
		c0.19,0.04,0.38,0.08,0.56,0.13c0,0,0.01,0,0.01,0c0.18,0.05,0.37,0.1,0.55,0.15c0,0,0.01,0,0.01,0c0.18,0.05,0.35,0.11,0.53,0.17
		c0.01,0,0.01,0.01,0.02,0.01c0.17,0.06,0.34,0.13,0.51,0.2c0.01,0,0.02,0.01,0.03,0.01c0.17,0.07,0.33,0.14,0.49,0.22
		c0.01,0.01,0.02,0.01,0.04,0.02c0.16,0.07,0.32,0.15,0.47,0.23c0.01,0.01,0.03,0.02,0.04,0.02c0.15,0.08,0.3,0.16,0.45,0.25
		c0.02,0.01,0.03,0.02,0.05,0.03c0.14,0.09,0.29,0.17,0.43,0.26c0.02,0.01,0.04,0.03,0.06,0.04c0.14,0.09,0.27,0.18,0.4,0.28
		c0.02,0.02,0.05,0.03,0.07,0.05c0.13,0.09,0.25,0.19,0.38,0.29c0.03,0.02,0.05,0.04,0.08,0.06c0.12,0.1,0.24,0.19,0.35,0.3
		c0.03,0.03,0.06,0.05,0.09,0.08c0.11,0.1,0.22,0.2,0.33,0.3c0.03,0.03,0.06,0.06,0.09,0.09c0.1,0.1,0.2,0.2,0.3,0.31
		c0.03,0.04,0.07,0.07,0.1,0.11c0.09,0.1,0.19,0.2,0.28,0.31c0.04,0.04,0.07,0.08,0.1,0.12c0.09,0.1,0.17,0.21,0.25,0.31
		c0.04,0.05,0.07,0.09,0.11,0.14c0.08,0.1,0.16,0.21,0.23,0.31c0.04,0.05,0.07,0.11,0.11,0.16c0.07,0.1,0.14,0.21,0.21,0.31
		c0.04,0.06,0.07,0.12,0.11,0.18c0.06,0.1,0.13,0.2,0.19,0.31c0.04,0.06,0.07,0.13,0.11,0.2c0.06,0.1,0.11,0.2,0.17,0.31
		c0.04,0.07,0.07,0.14,0.11,0.21c0.05,0.1,0.1,0.2,0.14,0.3c0.03,0.08,0.07,0.16,0.1,0.23c0.04,0.1,0.09,0.2,0.13,0.3
		c0.03,0.08,0.06,0.17,0.09,0.25c0.04,0.1,0.07,0.19,0.11,0.29c0.03,0.09,0.06,0.18,0.09,0.27c0.03,0.09,0.06,0.19,0.09,0.28
		c0.03,0.1,0.05,0.19,0.08,0.29c0.02,0.09,0.05,0.18,0.07,0.28c0.02,0.1,0.04,0.21,0.07,0.31c0.02,0.09,0.04,0.18,0.06,0.27
		c0.02,0.11,0.04,0.23,0.05,0.34c0.01,0.08,0.03,0.16,0.04,0.25c0.02,0.13,0.03,0.26,0.04,0.39c0.01,0.07,0.02,0.14,0.02,0.21
		c0.02,0.2,0.03,0.4,0.03,0.61c0.01,0.21,0.01,0.41,0,0.62c-0.01,0.41-0.04,0.81-0.08,1.21c-0.02,0.2-0.05,0.4-0.09,0.59
		c-0.24,1.37-0.71,2.66-1.37,3.84C316.47,171,316.37,171.16,316.27,171.33z"/>
</g>
<g>
	<defs>
		<rect id="SVGID_1_" y="67.92" width="850.39" height="360.58"/>
	</defs>
	<clipPath id="SVGID_2_">
		<use xlink:href="#SVGID_1_"  style="overflow:visible;"/>
	</clipPath>
	<g class="st25">
		<g>
			<g>
				<path class="st26" d="M960.4,377.06c-30.53,0-59.73-19.97-81.59-56.38c-23.34-38.87-72.98-36.2-73.47-36.17l-0.6-9.52
					c2.27-0.14,55.96-3.02,82.25,40.78c22.66,37.74,53.32,56.26,84.15,50.8c26.65-4.71,48.97-27.27,54.29-54.85
					c5.92-30.68,23.22-55.09,50.04-70.61c28.11-16.26,65.87-22.88,112.21-19.67l-0.66,9.51c-86.75-5.99-140.8,23.32-152.22,82.57
					c-6.05,31.37-31.54,57.05-61.99,62.44C968.65,376.7,964.51,377.06,960.4,377.06z"/>
			</g>
			<g>
				<g>
					<g>
						<g>
							<path class="st13" d="M745.67,305.74l29.61,0.2c10.17,0.07,18.47-8.12,18.54-18.29l0.1-15.34
								c0.07-10.17-8.12-18.47-18.29-18.54l-29.62-0.2L745.67,305.74z"/>
						</g>
						<g>
							<polygon class="st13" points="786.53,289.36 803.93,287.48 804.05,268.7 786.68,266.59 							"/>
						</g>
						<g>
							
								<rect x="799.88" y="272.68" transform="matrix(-1 -6.601005e-03 6.601005e-03 -1 1616.5439 562.3967)" class="st13" width="18.63" height="11.71"/>
						</g>
						<g>
							
								<rect x="815.32" y="267.91" transform="matrix(-1 -6.608271e-03 6.608271e-03 -1 1631.5437 549.5889)" class="st13" width="2.72" height="8.38"/>
						</g>
						<g>
							
								<rect x="810.37" y="267.88" transform="matrix(-1 -6.608271e-03 6.608271e-03 -1 1621.6389 549.4908)" class="st13" width="2.72" height="8.38"/>
						</g>
						<g>
							
								<rect x="805.41" y="267.85" transform="matrix(-1 -6.607785e-03 6.607785e-03 -1 1611.7343 549.3923)" class="st13" width="2.72" height="8.38"/>
						</g>
						<g>
							
								<rect x="815.24" y="279.82" transform="matrix(-1 -6.608271e-03 6.608271e-03 -1 1631.3077 573.4145)" class="st13" width="2.72" height="8.38"/>
						</g>
						<g>
							
								<rect x="810.29" y="279.79" transform="matrix(-1 -6.608271e-03 6.608271e-03 -1 1621.403 573.3164)" class="st13" width="2.72" height="8.38"/>
						</g>
						<g>
							
								<rect x="805.33" y="279.76" transform="matrix(-1 -6.607785e-03 6.607785e-03 -1 1611.4983 573.2179)" class="st13" width="2.72" height="8.38"/>
						</g>
						<g>
							<path class="st26" d="M696.83,239.12l35.77,0.24c1.15,0.01,2.22,0.66,2.69,1.71c1.41,3.14,6.14,9.84,21.49,13.2
								c12.9,2.82,13.42,47.39,0.7,50.94c-14.49,4.04-19.25,13.26-20.68,17.33c-0.42,1.2-1.55,1.98-2.82,1.98l-39.15-0.26
								L696.83,239.12z"/>
						</g>
						<g>
							<path class="st27" d="M690.65,265.83l-49.7-0.33c-3.42-0.02-6.18-2.82-6.16-6.24l0,0c0.02-3.42,2.82-6.18,6.24-6.16
								l49.7,0.33L690.65,265.83z"/>
						</g>
						<g>
							<path class="st27" d="M690.37,308.02l-49.7-0.33c-3.42-0.02-6.18-2.82-6.16-6.24l0,0c0.02-3.42,2.82-6.18,6.24-6.16
								l49.7,0.33L690.37,308.02z"/>
						</g>
						<g>
							<path class="st13" d="M669.39,281.51c0.17-25.06,6.57-45.55,15.82-47.53l0.99-0.19l21.04,0.14c0.47,0,0.93,0.13,1.37,0.33
								c1.8,0.81,2.78,2.78,2.57,4.74c-0.68,6.25-5.37,23.85-5.48,40.39c-0.12,17.43,4.3,38.56,4.8,45.28
								c0.13,1.72-0.66,3.41-2.12,4.32c-0.55,0.35-1.16,0.59-1.77,0.59l-21.04-0.14l-0.95-0.01
								C675.4,327.33,669.23,306.57,669.39,281.51z"/>
						</g>
						<g>
							<path class="st28" d="M695.49,285.39l-25.83-0.17c0,0-0.27-3.57-0.26-4.76c0.01-1.3,0.38-5.17,0.38-5.17l25.78,0.17
								c2.74,0.02,4.95,2.26,4.94,5l0,0C700.47,283.19,698.23,285.4,695.49,285.39z"/>
						</g>
					</g>
				</g>
			</g>
		</g>
		<g>
			<g>
				<path class="st26" d="M-163,379.73c-8.61-1.64-17.46-4.98-25.72-10.4c-14.93-9.81-39.33-34.58-35.02-90.2
					c4.85-62.54-76.33-74.3-77.16-74.41l1.29-9.45c0.92,0.12,22.74,3.19,44.24,14.88c29.22,15.89,43.44,40,41.14,69.71
					c-3.74,48.2,14.66,70.92,30.75,81.49c18.69,12.28,40.56,12.34,52.5,6.04c17.57-9.26,24.65-28.79,28.88-40.45
					c0.8-2.21,1.49-4.12,2.16-5.72c19.26-45.86,46.55-35.46,75.44-24.45c23.09,8.8,49.27,18.78,80.27,7.45l3.27,8.96
					c-34.35,12.55-63.51,1.44-86.94-7.5c-29.66-11.3-47.56-18.13-63.25,19.23c-0.58,1.38-1.23,3.19-1.99,5.28
					c-4.39,12.11-12.57,34.66-33.4,45.64C-135.48,380.56-148.9,382.42-163,379.73z"/>
			</g>
			<g>
				<g>
					<g>
						<g>
							<path class="st26" d="M140.97,250.24l-23.03,5.99c-2.19,0.57-3.88,2.24-4.62,4.37c-1.28,3.7-5.23,9.92-17.32,15.81
								c-11.85,5.77-1.98,46.94,11.17,47.08c12.9,0.14,19.7,5.58,22.84,9.26c1.67,1.96,4.3,2.78,6.78,2.14l25.93-6.74L140.97,250.24
								z"/>
						</g>
						<g>
							<path class="st26" d="M118.74,321.09l-22.5,5.85c-13.25,3.44-26.77-4.5-30.22-17.75v0c-3.44-13.25,4.5-26.77,17.75-30.22
								l22.5-5.85L118.74,321.09z"/>
						</g>
						<g>
							<polygon class="st26" points="75.32,316.03 58.01,318.58 53.52,301.31 69.88,295.1 							"/>
						</g>
						<g>
							
								<rect x="41.51" y="306.07" transform="matrix(0.9678 -0.2516 0.2516 0.9678 -76.7726 22.8127)" class="st26" width="18.63" height="11.12"/>
						</g>
						<g>
							
								<rect x="40.71" y="303.56" transform="matrix(0.9678 -0.2516 0.2516 0.9678 -76.0196 20.478)" class="st26" width="2.72" height="7.96"/>
						</g>
						<g>
							
								<rect x="45.51" y="302.32" transform="matrix(0.9678 -0.2516 0.2516 0.9678 -75.5621 21.6482)" class="st26" width="2.72" height="7.96"/>
						</g>
						<g>
							
								<rect x="50.3" y="301.07" transform="matrix(0.9678 -0.2516 0.2516 0.9678 -75.0917 22.813)" class="st26" width="2.72" height="7.96"/>
						</g>
						<g>
							
								<rect x="43.56" y="314.51" transform="matrix(0.9678 -0.2516 0.2516 0.9678 -78.6942 21.551)" class="st26" width="2.72" height="7.96"/>
						</g>
						<g>
							
								<rect x="48.36" y="313.27" transform="matrix(0.9678 -0.2516 0.2516 0.9678 -78.2264 22.7171)" class="st26" width="2.72" height="7.96"/>
						</g>
						<g>
							
								<rect x="53.15" y="312.02" transform="matrix(0.9678 -0.2516 0.2516 0.9678 -77.7586 23.8831)" class="st26" width="2.72" height="7.96"/>
						</g>
						<g>
							<path class="st13" d="M166.27,334.68c-9.63,2.5-22.82-16.19-29.47-41.76c-6.65-25.56-4.23-48.32,5.4-50.82l20.36-5.29
								l24.07,92.57l-20.7,5.38"/>
						</g>
						<g>
							
								<ellipse transform="matrix(0.9678 -0.2516 0.2516 0.9678 -65.6117 53.0386)" class="st26" cx="174.6" cy="283.09" rx="18.01" ry="47.83"/>
						</g>
						<g>
							<path class="st27" d="M170.79,283.48c1.24,4.76,0.49,9.07-1.67,9.63c-2.16,0.56-4.91-2.84-6.15-7.6
								c-1.24-4.76-0.49-9.07,1.67-9.63C166.8,275.32,169.55,278.72,170.79,283.48z"/>
						</g>
						<g>
							<path class="st27" d="M186.84,279.91c1.24,4.76,0.49,9.07-1.67,9.63c-2.16,0.56-4.91-2.84-6.15-7.6
								c-1.24-4.76-0.49-9.07,1.67-9.63C182.85,271.75,185.61,275.15,186.84,279.91z"/>
						</g>
					</g>
				</g>
			</g>
		</g>
	</g>
</g>
</svg>
